<?xml version="1.0" encoding="UTF-8"?>
<svg id="Camada_1" data-name="Camada 1" xmlns="http://www.w3.org/2000/svg" viewBox="0 0 396 298.06">
  <defs>
    <style>
      .cls-1 {
        stroke-width: 0px;
      }
    </style>
  </defs>
  <path class="cls-1" d="M356.06,298.06H40.79c-.52-.87-1.43-.79-2.25-.9-21.35-2.95-36.79-20-36.83-41.44-.13-70.47-.04-140.93-.05-211.4,0-6.63,1.57-12.85,4.52-18.77.99-2,1.76-2.78,4.03-1.09,20.4,15.21,40.91,30.27,61.36,45.41,39.78,29.46,79.56,58.93,119.3,88.46,3.78,2.81,10.38,3.72,14.92.29,9.41-7.11,19-14,28.48-21.03,25.54-18.91,51.06-37.86,76.59-56.78,25.2-18.67,50.44-37.29,75.59-56.02,2.58-1.92,3.64-1.28,4.85,1.33,2.72,5.87,4.27,12,4.27,18.43.04,70.32.09,140.65-.02,210.97-.03,19.91-13.64,36.4-33.02,41.03-2.15.52-4.58-.1-6.47,1.5Z"/>
  <path class="cls-1" d="M24.68,7.34c4.77-2.94,9.79-4.09,14.97-4.63,2.25-.23,4.53-.19,6.79-.19,101.52,0,203.05,0,304.57-.03,7.45,0,14.63.9,21.75,4.91-6.83,5.01-13.38,9.78-19.9,14.61-33.9,25.09-67.8,50.19-101.7,75.28-16.39,12.13-32.81,24.2-49.13,36.42-2.44,1.83-4.09,2.18-6.77.18-28.94-21.64-57.97-43.16-87.03-64.65C81.77,49.68,55.26,30.21,28.78,10.68c-1.33-.98-2.58-2.09-4.1-3.34Z"/>
</svg>