<?xml version="1.0" encoding="UTF-8"?>
<svg id="Camada_1" data-name="Camada 1" xmlns="http://www.w3.org/2000/svg" viewBox="0 0 389.01 389.01">
  <defs>
    <style>
      .cls-1 {
        stroke-width: 0px;
      }
    </style>
  </defs>
  <path class="cls-1" d="M207.35,346.18c-43.53,0-75.64.03-107.76-.02-11.12-.02-22.24-.29-33.37-.36-16.55-.1-32.52-15.14-32.61-31.73-.25-43.45-.06-86.91-.15-130.36,0-3.75,1.23-3.72,4.03-2.41,29.67,13.81,59.36,27.58,89.06,41.31,21.11,9.75,42.29,19.35,63.37,29.18,4.65,2.17,8.78,1.78,13.3-.33,25.28-11.77,50.64-23.36,75.96-35.06,24.99-11.55,49.97-23.09,74.89-34.79,3.84-1.8,4.73-1.21,4.72,3.03-.12,42.74,0,85.47-.11,128.21-.05,17.83-15.63,33-33.59,32.93-19.91-.08-39.81.59-59.74.13-23.13-.53-46.28.95-58,.28Z"/>
  <path class="cls-1" d="M126.35,120.2c0-23.69.07-47.38-.07-71.06-.02-3.62.78-4.94,4.7-4.93,43.4.14,86.79.13,130.19,0,3.74-.01,4.84.99,4.83,4.79-.12,47.56-.11,95.11,0,142.67,0,3.6-1.23,5.18-4.55,6.67-20.52,9.25-40.9,18.79-61.27,28.36-2.82,1.33-5.14,1.42-8.02.07-20.52-9.65-41.07-19.23-61.73-28.55-3.21-1.45-4.16-3.15-4.14-6.42.1-23.87.05-47.74.06-71.6ZM161.16,119.75s.01,0,.02,0c0,5.38-.05,10.77.01,16.15.1,8.26,4.74,12.86,13.02,12.91,9.33.06,18.67.15,28-.05,3.85-.08,5.86.47,5.66,5.16-.17,4.1-.7,6.24-5.52,6.12-10.04-.25-20.1-.12-30.15.17-6.92.2-10.89,4.54-10.99,11.28-.12,7.89,4.7,11.92,14.33,11.99,8.3.07,8.47.06,8.52,7.9.02,3.16,1.08,3.96,4.04,3.85,5.38-.2,10.77-.22,16.15.01,3.13.14,3.89-1,3.91-3.99.04-7.75.19-7.75,8.1-7.78.9,0,1.8,0,2.69-.03,7.75-.23,12.01-4.29,12.12-12.01.17-11.13.21-22.26.08-33.38-.1-8.54-4.98-13.18-13.45-13.19-9.33-.01-18.68-.27-27.99.12-4.58.19-5.35-1.61-5.26-5.57.08-3.67.24-6.01,5.07-5.86,10.22.32,20.46.21,30.68-.09,6.95-.2,11.08-5.1,10.84-12.01-.28-7.83-4.82-11.22-15.04-11.23-7.71,0-7.88,0-7.83-7.49.02-3.25-.82-4.46-4.21-4.28-5.19.27-10.41.25-15.61,0-3.29-.16-4.31.86-4.28,4.21.06,7.54-.13,7.54-7.77,7.56-.9,0-1.79,0-2.69.02-8.17.18-12.19,4.05-12.42,12.24-.16,5.74-.03,11.49-.03,17.23Z"/>
  <path class="cls-1" d="M45.63,159.04c14.19-6.09,27.46-11.78,40.73-17.46,4.42-1.89,8.9-3.66,13.28-5.65,2.12-.96,3.28-1.18,3.27,1.78-.05,14.7-.02,29.4.04,44.11.01,2.4-.73,3.3-3.1,2.21-17.78-8.2-35.57-16.38-54.23-24.98Z"/>
  <path class="cls-1" d="M346.68,159.01c-18.64,8.62-36.13,16.65-53.55,24.82-2.87,1.35-3.81.77-3.79-2.33.08-14.51.08-29.03.13-43.54,0-1.65-.2-3.46,2.59-2.26,17.85,7.67,35.73,15.26,54.62,23.31Z"/>
</svg>