<?xml version="1.0" encoding="UTF-8"?>
<svg id="Camada_1" data-name="Camada 1" xmlns="http://www.w3.org/2000/svg" viewBox="0 0 441.39 441.39">
  <defs>
    <style>
      .cls-1 {
        stroke-width: 0px;
      }
    </style>
  </defs>
  <path class="cls-1" d="M55.76,191.75c.12-21.33,3.98-39.63,11.9-57.05,5.85-12.87,13.56-24.47,23.1-34.93,12.45-13.65,27.1-24.19,43.9-31.76,13.22-5.95,27.06-9.52,41.52-10.94,19.09-1.88,37.69.3,55.81,6.41,15.33,5.17,29.2,12.99,41.73,23.28,14.89,12.23,26.54,26.96,35.04,44.2,6.07,12.31,10.11,25.25,12.08,38.86,1.05,7.27,1.72,14.55,1.56,21.88-.25,11.38-1.8,22.59-4.82,33.58-.87,3.15-2.81,5.28-6.06,5.9-3.1.59-5.75-.36-7.78-2.87-1.82-2.25-1.83-4.86-1.15-7.41,2.45-9.2,3.79-18.51,4.05-28.05.48-17.04-2.62-33.35-9.19-49.04-5.42-12.93-13.03-24.48-22.58-34.68-8.83-9.43-19.03-17.15-30.44-23.27-12.46-6.69-25.73-10.92-39.67-12.88-9.41-1.32-18.89-1.34-28.39-.26-14.38,1.63-28.01,5.62-40.87,12.22-14.62,7.51-27.11,17.61-37.52,30.35-13.23,16.18-21.59,34.6-25.02,55.15-2.56,15.31-2.05,30.61,1.47,45.81,4.39,18.97,12.99,35.81,25.66,50.47,9.44,10.92,20.59,19.87,33.39,26.72,12.42,6.65,25.6,10.93,39.5,12.87,9.8,1.37,19.65,1.47,29.52.3,6.76-.8,13.37-2.17,19.92-3.96,4.06-1.11,8.24,1.28,9.51,5.38,1.16,3.75-1.01,8.13-4.91,9.38-6.46,2.06-13.09,3.41-19.82,4.31-6.98.93-13.97,1.41-21,1.25-16.41-.38-32.23-3.59-47.45-9.81-18.18-7.43-33.97-18.34-47.33-32.69-11.65-12.52-20.58-26.8-26.75-42.8-3.83-9.92-6.39-20.16-7.81-30.66-.78-5.77-1.35-11.6-1.12-15.25Z"/>
  <path class="cls-1" d="M274.46,153.76c.11,2.41-.94,4.3-2.6,5.96-22.64,22.63-45.27,45.27-67.9,67.91-10.07,10.07-20.15,20.14-30.22,30.22-4.83,4.83-8.82,4.83-13.66,0-17.76-17.76-35.51-35.52-53.27-53.28-4.36-4.36-4.36-8.42.02-12.8,8.8-8.8,17.6-17.6,26.4-26.41,3.92-3.93,8.39-3.96,12.37,0,6.59,6.55,13.17,13.12,19.7,19.74,1.15,1.17,1.82,1.44,3.16.08,21.21-21.3,42.48-42.53,63.73-63.78,4.56-4.56,8.86-4.61,13.39-.07,8.7,8.69,17.39,17.39,26.08,26.09,1.75,1.75,2.94,3.76,2.81,6.35ZM194.83,214.42c.5-.44.95-.8,1.36-1.21,19.44-19.44,38.87-38.89,58.34-58.3.99-.99.96-1.48-.02-2.43-4.71-4.61-9.41-9.24-13.98-13.99-1.31-1.36-2-1.37-3.32-.03-9.37,9.48-18.83,18.88-28.26,28.31-9.85,9.85-19.7,19.7-29.53,29.56-.64.64-1.84,1.11-.5,2.41,5.04,4.91,9.98,9.94,14.96,14.91.25.25.56.46.93.76ZM183.59,225.69c-.41-.45-.76-.84-1.13-1.21-13.93-13.93-27.87-27.85-41.76-41.81-1.07-1.08-1.71-1.22-2.86-.04-4.59,4.73-9.27,9.38-13.98,13.99-1.07,1.05-1.32,1.75-.06,2.83,1.41,1.21,2.65,2.61,3.97,3.93,12.6,12.65,25.2,25.31,37.8,37.97.89.9,1.57,1.04,2.56.02,4.82-4.93,9.72-9.78,14.58-14.66.31-.31.58-.66.89-1.01Z"/>
  <path class="cls-1" d="M357.71,274.34c.07,7.84-1.94,12.42-6,16.05-1.3,1.16-1.35,1.85-.06,3.13,10.02,9.91,19.96,19.89,29.92,29.86,7.13,7.14,7.24,18.62.15,25.77-10.5,10.59-21.04,21.15-31.63,31.65-7.59,7.53-18.71,7.43-26.22-.08-9.96-9.96-19.95-19.91-29.87-29.91-1.13-1.14-1.6-1.28-2.79.05-5.03,5.61-11.44,7.54-18.66,5.66-7.16-1.86-11.6-6.77-13.29-13.97-3.39-14.48-6.66-28.99-10.02-43.48-2.82-12.18-5.46-24.41-8.6-36.5-3.43-13.18,8.27-26.05,22.7-22.63,19.11,4.53,38.25,8.95,57.37,13.42,7.6,1.78,15.2,3.59,22.8,5.36,8.52,1.98,14.24,9.21,14.22,15.62ZM258.71,255.02c-2.08.02-3.42,1.84-2.94,3.88,2.02,8.7,4.05,17.4,6.08,26.1,4.18,17.9,8.38,35.79,12.52,53.7.36,1.56,1.02,2.65,2.67,2.83,1.86.21,2.67-1.08,3.25-2.52.67-1.66,1.4-3.31,1.83-5.03,1.56-6.2,9.28-7.91,13.89-3.18,12.52,12.82,25.28,25.4,37.95,38.08,2.55,2.55,3.59,2.56,6.12.03,9.76-9.75,19.51-19.51,29.26-29.27,2.67-2.67,2.67-3.91.04-6.53-12.73-12.72-25.45-25.44-38.17-38.17-4.55-4.56-3.08-11.02,2.99-13.25,1.75-.64,3.47-1.35,5.22-1.97,1.5-.53,2.72-1.2,2.67-3.1-.05-2.04-1.49-2.61-3.06-3-3.17-.8-6.36-1.55-9.55-2.29-21.29-4.95-42.59-9.9-63.89-14.84-2.32-.54-4.65-1-6.88-1.47Z"/>
</svg>