<?xml version="1.0" encoding="UTF-8"?>
<svg id="Camada_1" data-name="Camada 1" xmlns="http://www.w3.org/2000/svg" viewBox="0 0 497.74 443.5">
  <defs>
    <style>
      .cls-1 {
        stroke-width: 0px;
      }
    </style>
  </defs>
  <path class="cls-1" d="M443.84,222.36c-.08,107.31-111.35,179.35-209.3,134.43-15.91-7.3-28.93-8.42-44.63-2.38-10.25,3.94-23,13.05-32.36,3.17-8.53-9.01.08-21.26,4.21-31.04,6.57-15.53,5.51-28.51-2.05-44.33-26.09-54.59-14-119.63,27.69-162.58,43.41-44.72,106.37-57.95,164.51-34.57,56.08,22.55,91.96,76.15,91.92,137.3ZM320.17,253.97c0-11.07.46-22.17-.12-33.22-.74-14-8.76-22.79-22.49-24.26-14.08-1.5-24.65,6.51-26.46,19.69-3.43,25.01-3.43,50.52.03,75.56,1.88,13.57,12.24,20.89,26.39,19.52,14.05-1.37,21.79-10.08,22.52-24.08.58-11.04.12-22.14.13-33.22ZM294.36,132.17c-13.22.38-25.24,12.86-24.83,25.77.42,13.33,12.41,25.15,25.69,25.33,13.77.19,25.42-12.45,24.96-27.07-.43-13.96-11.69-24.43-25.83-24.03Z"/>
</svg>