<?xml version="1.0" encoding="UTF-8"?>
<svg id="Camada_1" data-name="Camada 1" xmlns="http://www.w3.org/2000/svg" viewBox="0 0 485.04 485.04">
  <defs>
    <style>
      .cls-1 {
        stroke-width: 0px;
      }
    </style>
  </defs>
  <path class="cls-1" d="M.24,308.73v-62.61c.87.06,1.08-.53,1.18-1.21.42-2.76,1.03-5.4,2.26-8,1.65-3.5,3.22-6.91,5.65-10.03,3.12-4.02,6.78-7.32,10.96-10.05,2.02-1.32,2.71-2.89,2.72-5.16.03-7.04.18-14.08.87-21.08.77-7.83,1.94-15.62,2.86-23.43.37-3.19,1.59-6.18,2.02-9.37.51-3.79,1.78-7.45,2.29-11.26.09-.66.46-1.27.66-1.92.87-2.73,1.81-5.45,2.57-8.22.77-2.81,1.83-5.52,2.63-8.33.45-1.59.93-3.24,1.69-4.73,1.79-3.48,3.11-7.16,4.76-10.7,1.27-2.74,2.34-5.57,3.87-8.2,2.22-3.83,4.27-7.75,6.55-11.54.82-1.36,1.5-2.81,2.5-4.08,1.63-2.07,3.1-4.26,4.66-6.38,2.11-2.86,4.03-5.89,6.4-8.51,5.43-6.02,10.65-12.24,16.89-17.48,3.45-2.9,6.91-5.8,10.33-8.74,1.95-1.67,4.15-2.96,6.25-4.4,2.37-1.62,4.73-3.26,7.15-4.8,2.55-1.62,4.98-3.44,7.78-4.67,1.92-.85,3.73-1.97,5.59-2.95,2.04-1.08,4.06-2.2,6.15-3.18,1.95-.91,3.81-2.02,5.88-2.66,2.28-.7,4.5-1.64,6.67-2.61,1.72-.77,3.56-1.13,5.25-1.99,2.31-1.18,4.78-2.09,7.28-2.66,3.32-.75,6.42-2.22,9.81-2.65.23-.03.45-.17.68-.24,3.93-1.18,7.81-2.58,11.91-3.08,1.55-.19,3.09-.46,4.59-.88,1.7-.48,3.42-.81,5.17-.99,1.51-.15,3.02-.37,4.48-.81,2.59-.78,5.24-1.04,7.92-1.2,1.55-.1,3.12-.2,4.65-.44,6.88-1.07,13.81-1.64,20.77-1.8,3.23-.07,6.47-.29,9.7-.44.39-.02.89.06,1.07-.38.3-.73.88-.7,1.49-.7,4.96,0,9.91-.01,14.87,0,.91,0,1.94-.31,2.49.86.13.28.58.19.9.21,2.2.1,4.39.2,6.59.29,2.79.12,5.59.23,8.38.34,5.96.23,11.83,1.41,17.76,1.79,6.22.4,12.21,2.01,18.33,2.9,2.36.34,4.64,1.18,7.05,1.35,1.65.11,3.18.72,4.76,1.15,2.81.75,5.57,1.74,8.4,2.37,3.2.72,6.19,2.18,9.47,2.56.19.02.37.13.56.21,3.85,1.63,7.79,3.02,11.67,4.58,3.62,1.46,7.32,2.71,10.83,4.43,1.64.8,3.27,1.65,4.88,2.52,1.75.94,3.48,1.95,5.29,2.76,1.75.78,3.44,1.71,5.09,2.64,2.94,1.66,5.74,3.59,8.52,5.54,4.21,2.95,8.65,5.56,12.5,9.02,3.5,3.15,7.23,6.04,10.74,9.19,3.18,2.86,5.93,6.15,8.86,9.26,2.27,2.41,4.62,4.75,6.54,7.48,1.42,2.02,3.02,3.92,4.44,5.94,2.32,3.29,4.98,6.34,6.93,9.89.67,1.22,1.35,2.44,2.05,3.65,1.56,2.69,3.24,5.31,4.7,8.05.69,1.3,1.66,2.46,2.14,3.87.7,2.04,1.67,3.98,2.56,5.92,1.62,3.55,3.15,7.15,4.7,10.72,1.6,3.68,2.83,7.55,3.86,11.44.78,2.94,1.83,5.78,2.7,8.68,1.44,4.76,2.16,9.65,3.27,14.46.36,1.55.57,3.14,1.05,4.67.54,1.73.8,3.5.98,5.3.17,1.67.3,3.35.62,4.99,1.17,5.94,1.47,11.98,2.16,17.97.78,6.82.8,13.72.89,20.6,0,.72.07,1.44.19,2.15.13.82.54,1.5,1.23,1.99,1.2.85,2.44,1.67,3.6,2.58,2.01,1.56,4.23,2.88,5.8,4.97.62.83,1.31,1.61,1.94,2.43,1.82,2.35,3.88,4.48,4.97,7.4.59,1.57,1.1,3.26,2.01,4.71.74,1.18,1.13,2.46,1.32,3.82.15,1.03.3,2.06.49,3.08.06.34.15.82.39.97.79.47.7,1.19.7,1.9.02,18.07.04,36.14.06,54.21,0,1.88-.03,3.76-.06,5.64,0,.39.12.88-.3,1.1-.95.51-1.11,1.46-1.26,2.34-.71,4.09-2.59,7.72-4.62,11.23-2.56,4.42-6.02,8.13-10,11.36-2.12,1.72-4.46,3.04-6.81,4.4-2.21,1.28-4.55,2.2-6.91,2.94-5.17,1.63-10.52,2.28-15.96,2.24-8.63-.06-17.27,0-25.91-.04-1.75-.01-2.77.79-3.42,2.28-.19.44-.32.9-.45,1.36-.64,2.23-1.67,4.32-2.56,6.43-.99,2.34-1.77,4.78-2.98,7.04-.63,1.19-1.29,2.38-1.87,3.61-1.46,3.1-2.87,6.23-4.48,9.24-1.75,3.26-3.63,6.47-5.62,9.59-.86,1.35-1.55,2.78-2.45,4.11-1.52,2.25-3.04,4.49-4.59,6.72-2.07,2.98-4.02,6.05-6.3,8.87-4.11,5.09-8.15,10.24-12.57,15.09-5.21,5.7-10.66,11.16-16.44,16.26-5.65,4.98-11.45,9.8-17.63,14.16-5.21,3.68-10.61,7.06-16,10.45-1.27.8-2.51,1.69-3.94,2.27-1.74.7-3.31,1.74-5,2.56-2.32,1.13-4.56,2.41-6.91,3.5-1.74.8-3.57,1.39-5.25,2.3-2.01,1.09-4.15,1.89-6.25,2.67-3.43,1.27-6.96,2.28-10.38,3.61-.63.24-1.31.33-1.98.48-.97.22-1.98.34-2.92.67-3.52,1.26-7.21,1.81-10.84,2.54-4.19.84-8.47,1.12-12.73,1.49-.46.04-1.04-.1-1.27.46-.28.69-.83.65-1.39.65-2.72,0-5.44,0-8.16,0-.78,0-1.62.18-2.02-.83-.1-.26-.49-.23-.76-.25-1-.08-2-.12-2.99-.25-4.55-.59-9.12-.95-13.63-1.95-3.7-.82-7.3-2.09-11.06-2.66-.79-.12-1.51-.51-2.26-.79-2.58-.94-5.15-1.96-7.79-2.67-2.41-.65-4.6-1.8-6.87-2.76-1.53-.65-3.17-1.09-4.62-1.95-1.78-1.06-3.74-1.75-5.57-2.72-1.78-.95-3.59-1.9-5.4-2.81-3.23-1.63-6.33-3.52-9.42-5.41-1.22-.75-2.46-1.48-3.67-2.25-2.39-1.52-4.73-3.1-7.01-4.77-2.95-2.18-6.12-4.09-8.92-6.45-5.04-4.24-10.22-8.31-14.97-12.9-6.47-6.25-12.8-12.61-18.47-19.61-3.97-4.9-8.01-9.73-11.49-15.01-2.5-3.79-5.27-7.4-7.51-11.37-2.48-4.41-5.32-8.6-7.54-13.16-.69-1.43-1.36-2.88-2.1-4.3-1.08-2.09-2.1-4.2-3.15-6.3-.93-1.86-1.66-3.79-2.43-5.72-1.17-2.92-2.48-5.77-3.49-8.76-.69-2.05-1.66-2.72-3.82-2.72-8.48,0-16.95,0-25.43,0-6.53.01-12.88-.83-19.01-3.24-1.69-.66-3.2-1.59-4.83-2.33-1.72-.78-3.31-1.79-4.78-2.95-2.63-2.08-5.11-4.31-7.31-6.88-2.83-3.31-4.96-7-6.73-10.95-.97-2.17-1.61-4.42-2.13-6.73-.17-.77-.57-1.31-1.41-1.41ZM91.56,265.39c-.46,9.69.65,19.3,1.59,28.92.34,3.4,1.29,6.67,1.75,10.03.54,3.88,1.89,7.6,2.36,11.5.05.39.28.75.39,1.13.96,3.17,2.12,6.29,2.8,9.52.43,2.01,1.4,3.51,2.7,4.93.43.47.89.92,1.35,1.36,2.63,2.51,4.93,5.35,7.81,7.6,1.54,1.2,3.24,2.21,4.71,3.49,4.14,3.6,9.07,5.91,13.77,8.57,1.1.63,2.17,1.37,3.35,1.83,3.04,1.18,6.06,2.41,9.07,3.69,3.97,1.69,8.16,2.75,12.29,3.93,3.71,1.05,7.41,2.29,11.32,2.55.78.05,1.56.34,2.32.59,1.92.62,3.89.88,5.89,1.02,1.59.12,3.2.19,4.77.46,5.92,1.02,11.92,1.27,17.87,1.98,1.65.2,2.93-.21,4.02-1.52,2.46-2.94,4.94-5.87,8.44-7.67,1.91-.98,3.58-2.33,5.58-3.22,2.03-.9,4.22-1.25,6.21-2.15,1.9-.86,3.85-1.29,5.89-1.49,1.71-.17,3.43-.32,5.11-.65,5.08-.99,10.09-.48,15.12.44,3.07.56,6.08,1.19,9.02,2.31,1.98.75,3.99,1.52,5.81,2.53,2.7,1.5,5.34,3.15,7.66,5.27,4.03,3.69,7.26,7.84,8.51,13.28.65,2.84,1.14,5.63.48,8.63-.89,4.07-2.44,7.72-4.97,11.01-1.87,2.43-4.06,4.58-6.55,6.28-2.75,1.87-5.63,3.55-8.78,4.81-4.11,1.64-8.24,2.99-12.65,3.43-2.23.22-4.45.45-6.68.64-1.07.09-2.16.1-3.23-.07-1.97-.31-3.96-.53-5.95-.71-2.02-.18-4.16.14-6.03-.76-2.36-1.13-4.88-1.82-7.32-2.58-3.4-1.06-6.02-3.23-8.91-5.02-1.09-.68-2.34-1.26-3.19-2.3-1.45-1.76-2.92-3.49-4.29-5.3-1.03-1.36-2.34-2.18-4-2.37-2.06-.23-4.14-.47-6.21-.52-8.3-.21-16.43-1.76-24.57-3.21-2.67-.48-5.39-.61-8.02-1.43-4.15-1.29-8.36-2.38-12.61-3.29-.9-.19-1.77-.47-2.64-.78-3.74-1.37-7.47-2.76-11.13-4.33-1.46-.62-3.05-.91-4.4-1.83-.53-.36-1.25-.51-1.75.09-.44.53-.1,1.03.27,1.5,2.4,3.08,4.79,6.17,7.18,9.26,1.37,1.77,2.61,3.65,4.12,5.29,3.78,4.07,7.71,7.99,11.52,12.04,2.88,3.07,6.08,5.78,9.27,8.5,3.19,2.72,6.33,5.52,9.7,8,4.5,3.3,9.21,6.32,13.84,9.43,1.09.73,2.18,1.5,3.37,2.04,1.78.81,3.46,1.82,5.17,2.74,1.26.68,2.59,1.23,3.84,1.93,2.22,1.24,4.45,2.45,6.8,3.47,1.94.84,3.93,1.53,5.89,2.31,2.89,1.14,5.7,2.44,8.69,3.35,2.72.83,5.52,1.31,8.22,2.12,2.82.84,5.63,1.52,8.55,1.71,3.67.24,7.28,1.26,10.96,1.1,6-.26,11.96-.91,17.77-2.48,2.31-.62,4.76-.72,6.94-1.81.98-.49,2.01-.75,3.07-1,2.69-.64,5.25-1.66,7.76-2.77,2.07-.91,4.17-1.81,6.27-2.64,2.01-.8,3.96-1.73,5.83-2.75,2.9-1.58,5.85-3.07,8.72-4.69,2.68-1.51,5.21-3.24,7.79-4.89,3.33-2.12,6.64-4.27,9.73-6.74,2.74-2.19,5.68-4.14,8.34-6.42,3.76-3.22,7.35-6.64,11-9.99,3.07-2.82,5.72-6.03,8.58-9.04,2.22-2.35,4.46-4.68,6.37-7.31,1.5-2.06,3.18-3.99,4.73-6.02,1.43-1.87,2.87-3.74,4.17-5.7,2.14-3.22,4.06-6.59,6.27-9.76,2.62-3.75,4.6-7.83,6.61-11.89,1.64-3.31,3.52-6.52,4.84-9.99.95-2.49,2.09-4.92,2.94-7.44.78-2.31,1.73-4.54,2.6-6.81,1.36-3.55,2.31-7.2,3.24-10.87.24-.93.45-1.86.77-2.77,1.1-3.05,2.02-6.22,2.45-9.36.73-5.35,1.96-10.61,2.5-15.98,1.05-10.46,1.99-20.93,1.48-31.46-.34-7.06-.88-14.12-1.12-21.19-.09-2.62-.64-4.72-3.07-6.01-.27-.15-.48-.41-.73-.62-2.85-2.45-5.91-4.6-9.11-6.57-2.51-1.55-4.97-3.16-7.66-4.42-2.3-1.09-4.56-2.26-6.81-3.45-1.92-1.02-4-1.58-5.95-2.5-2.05-.97-4.1-2.05-6.28-2.59-2.95-.73-5.78-1.81-8.72-2.58-2.57-.68-5.19-1.3-7.69-2.24-3-1.12-6.11-1.86-9.17-2.72-3.01-.85-6.16-1.37-9.28-1.83-6.87-1.03-13.74-2.08-20.54-3.52-.44-.09-.89-.13-1.21.29-.32.41-.2.83.04,1.23.68,1.12,1.31,2.27,2.13,3.32,1.53,1.99,3.09,4,4.29,6.2,2.08,3.82,3.82,7.81,4.97,12.02.12.45.42.95-.04,1.34-.43.36-.91.08-1.36-.08-1.98-.71-3.52-2.15-5.34-3.13-1.85-1-3.53-2.29-5.57-2.99-2.26-.78-4.45-1.75-6.64-2.69-2.42-1.04-4.85-2.06-7.38-2.75-2.92-.8-5.76-1.86-8.66-2.75-3.23-.99-6.48-1.98-9.67-3.1-3.08-1.08-6.26-1.85-9.3-3.06-2.03-.81-4.08-1.61-6.15-2.28-2.51-.82-4.9-1.92-7.39-2.77-1.58-.54-3.21-1.18-4.72-2.02-1.88-1.04-3.78-2.05-5.72-2.95-1.81-.84-3.58-1.77-5.32-2.71-1.36-.74-2.83-1.25-4.1-2.2-3.11-2.3-6.31-4.48-9.46-6.71-2.02-1.43-4.15-2.73-6-4.35-4.29-3.76-8.47-7.65-12.3-11.92-4.68-5.21-9.07-10.61-12.98-16.41-.98-1.46-2.04-2.86-3.08-4.27-.38-.52-.84-1.07-1.58-.83-.7.22-.91.86-1,1.52-.09.71-.1,1.44-.19,2.15-.49,4.17-1.23,8.3-1.45,12.5-.11,2.15-.17,4.3-.84,6.39-.98,3.08-2.01,6.15-2.69,9.3-.6,2.79-1.85,5.37-2.34,8.17-.06.34-.24.68-.44.98-1.16,1.69-1.79,3.65-2.71,5.46-2.01,3.97-3.57,8.18-6.13,11.87-.59.85-1.18,1.7-1.77,2.55-1.64,2.35-3.35,4.67-4.92,7.07-1.79,2.74-4.11,4.99-6.39,7.28-2.93,2.94-5.66,6.09-8.89,8.73-2.53,2.07-5.31,3.82-7.95,5.75-2.83,2.08-5.68,4.06-8.97,5.45-1.84.78-3.69,1.7-5.52,2.55-2.4,1.11-4.74,2.32-7.37,3.04-3.7,1.01-7.5,1.56-11.14,2.83-2.29.8-3.38,1-2.91,4.12.02.12,0,.24,0,.36,0,4.31,0,8.63,0,12.94ZM428.29,209.88c1.84,0,3.68.02,5.52,0,1.79-.02,2.59-.79,2.56-2.58-.03-1.6-.2-3.19-.27-4.79-.22-4.47-.25-8.96-.69-13.41-.47-4.77-1.34-9.49-1.87-14.26-.46-4.12-1.15-8.25-2.24-12.25-1.08-3.97-1.75-8.03-2.79-12.01-.8-3.06-1.89-6.01-2.87-9-.93-2.83-1.68-5.73-2.84-8.51-.55-1.32-1.25-2.6-1.69-3.93-.69-2.1-1.88-3.96-2.63-6.03-.64-1.75-1.39-3.49-2.24-5.14-1.73-3.36-3.63-6.64-5.6-9.87-.75-1.23-1.45-2.48-2.16-3.72-1.43-2.5-3.19-4.77-4.92-7.05-2.15-2.83-4.07-5.86-6.46-8.47-5.01-5.48-9.85-11.14-15.75-15.74-2.77-2.16-5.44-4.44-8.16-6.66-1.92-1.57-4.08-2.79-6.18-4.1-4.08-2.55-7.93-5.46-12.36-7.48-1.5-.68-3.03-1.4-4.5-2.21-1.81-1-3.63-1.99-5.52-2.82-2.07-.91-4.12-1.87-6.27-2.63-1.72-.61-3.47-1.17-5.17-1.85-3.24-1.31-6.48-2.6-9.86-3.57-2.69-.77-5.4-1.42-8.09-2.18-4.53-1.28-9-2.76-13.71-3.28-1.31-.14-2.62-.38-3.89-.7-4.35-1.1-8.8-1.76-13.23-2.21-9.45-.97-18.88-2.25-28.41-2.43-8.91-.17-17.83-.29-26.74.04-3.47.13-6.97-.04-10.42.46-8.74,1.27-17.6,1.43-26.29,3.16-4.38.87-8.76,1.84-13.21,2.33-.47.05-.92.26-1.37.41-3.1,1.04-6.3,1.81-9.46,2.58-5.01,1.22-9.83,2.97-14.72,4.53-.19.06-.37.16-.54.26-2.33,1.24-4.89,1.94-7.36,2.82-2.16.77-4.16,1.82-6.21,2.75-2.34,1.07-4.69,2.2-6.94,3.45-1.78.99-3.71,1.64-5.42,2.78-2.41,1.62-4.97,3.03-7.38,4.65-2.58,1.74-5.34,3.21-7.76,5.18-2.32,1.89-4.54,3.92-6.94,5.69-5.91,4.35-10.62,9.92-15.64,15.17-2.57,2.68-4.62,5.81-6.86,8.76-2.56,3.36-5.12,6.71-7.1,10.48-.7,1.33-1.47,2.65-2.27,3.93-1.16,1.86-2.22,3.77-3.31,5.67-.92,1.61-1.47,3.36-2.29,4.99-1.71,3.38-3.16,6.88-4.69,10.33-1.58,3.56-2.62,7.36-3.77,11.09-.98,3.19-2.17,6.32-2.87,9.62-1.07,5.03-2.46,10-3.36,15.07-1.63,9.17-3.03,18.37-3.55,27.67-.22,4.03-.31,8.07-.61,12.09-.15,1.98.62,2.89,2.33,2.9,3.84.04,7.68.02,11.51.01,1.36,0,2.23-.74,2.78-1.92.34-.73.5-1.51.64-2.3.34-1.93.5-3.88.96-5.79,1.27-5.24,2.32-10.52,3.25-15.83.21-1.19.54-2.32.94-3.46.94-2.71,1.89-5.43,2.65-8.19.78-2.81,1.75-5.56,2.68-8.31.99-2.9,1.73-5.89,2.93-8.73.55-1.29,1.41-2.42,1.83-3.75.65-2.11,1.79-4.01,2.74-5.97,1.58-3.3,3.15-6.62,4.69-9.94,1.41-3.03,3.32-5.71,5.1-8.49,1.55-2.42,3.13-4.81,4.75-7.18,1.73-2.53,3.21-5.25,5.19-7.6,2.73-3.23,5.54-6.4,8.36-9.55,1.78-2,3.51-4.04,5.55-5.79,1.88-1.61,3.71-3.27,5.57-4.91,2.19-1.92,4.26-4.01,6.61-5.72,3.86-2.81,7.88-5.42,11.89-8.01,1.04-.67,1.96-1.55,3.1-2.03,1.77-.74,3.34-1.86,5.12-2.6,1.23-.51,2.49-1.11,3.61-1.82,1.73-1.1,3.62-1.88,5.42-2.79,1.93-.97,3.9-1.96,6.04-2.56,2.71-.77,5.31-1.94,7.96-2.91,2.32-.85,4.61-1.83,6.99-2.45,4.67-1.22,9.42-2.11,14.05-3.51.57-.17,1.17-.26,1.76-.37,5.34-1.05,10.7-1.89,16.12-2.41,3.73-.36,7.38-1.4,11.17-1.4,3,0,5.99-.17,8.99-.21,4.48-.06,8.94-.49,13.42-.31,4.71.19,9.43.34,14.14.47,3.64.1,7.26.25,10.84,1.07,1.44.33,2.92.49,4.39.62,6.46.58,12.81,1.71,19.07,3.45,2.87.8,5.81,1.49,8.73,2.08,2.34.48,4.46,1.48,6.72,2.1,2.54.71,4.98,1.73,7.42,2.66,2.56.97,5.25,1.6,7.7,2.93,1.18.64,2.34,1.37,3.59,1.89,3.16,1.32,6.08,3.15,9.2,4.55,1.18.53,2.41,1.11,3.46,1.88,2.22,1.63,4.55,3.09,6.82,4.64,3.85,2.63,7.87,5.01,11.3,8.22,3.62,3.38,7.56,6.41,11.01,9.97,2.03,2.09,3.79,4.44,5.84,6.51,5.03,5.09,8.9,11.04,12.74,17.01,1.4,2.18,2.76,4.4,4.3,6.48,1.99,2.69,3.41,5.68,4.74,8.69.89,2,1.91,3.94,2.78,5.96.61,1.41,1.13,2.91,1.95,4.22,1.15,1.84,1.94,3.86,2.79,5.81,1.52,3.46,2.76,7.07,3.78,10.7,1.36,4.84,3.06,9.57,4.58,14.35,1.45,4.56,2.15,9.25,3.11,13.89.91,4.41,2.19,8.77,2.61,13.28.03.31.15.62.26.92.65,1.84,1.55,2.47,3.49,2.47,1.76,0,3.52,0,5.28,0Z"/>
  <path class="cls-1" d="M204.56,266.65c.26,3.41-.54,6.74-2.05,9.55-2.18,4.05-4.5,8.2-8.87,10.58-1.38.75-2.66,1.75-4,2.61-1.79,1.15-3.93,1.28-5.93,1.8-4.53,1.18-8.89.01-13.17-1.35-1.14-.36-2.15-1.2-3.17-1.9-1.68-1.15-3.31-2.36-4.97-3.53-.99-.7-1.41-1.82-2.08-2.76-1.43-2.01-2.91-4-3.94-6.27-1.09-2.43-1.28-5.05-1.37-7.63-.13-4.01.13-8.03,2.35-11.57,1.41-2.26,2.89-4.49,4.48-6.64.57-.77,1.53-1.27,2.34-1.84,1.43-1.01,2.92-1.94,4.34-2.97,2.54-1.83,5.54-2.15,8.49-2.65,3.73-.63,7.3.33,10.89,1.09,1.04.22,1.84.97,2.7,1.52,2.57,1.66,5.42,3.02,7.32,5.51,1.67,2.18,3.49,4.37,4.56,6.85,1.29,3.01,2.35,6.22,2.07,9.59Z"/>
  <path class="cls-1" d="M280.61,265.25c-.17-2,1.14-5.1,2.13-8.25.35-1.12,1.32-1.97,1.94-3,1.9-3.13,4.17-5.89,7.49-7.72,1.37-.76,2.7-1.68,4.04-2.55,1.53-.99,3.35-.98,5.05-1.38,4.22-1,8.34-.22,12.43.8,1.34.34,2.44,1.2,3.58,1.91,1.95,1.23,3.8,2.63,5.69,3.96.92.65,1.24,1.75,1.88,2.61,1.57,2.11,3.16,4.23,4.15,6.7,1.17,2.95,1.4,6.08,1.29,9.19-.13,3.43-.39,6.93-2.46,9.87-1.96,2.78-3.34,6.04-6.29,8.04-2.18,1.47-4.22,3.32-6.61,4.26-4.81,1.89-9.78,2.49-15.02,1.17-4.45-1.13-7.84-3.8-11.35-6.38-1.6-1.18-2.43-3.05-3.59-4.62-2.9-3.9-4.18-8.37-4.35-14.61Z"/>
</svg>