<?xml version="1.0" encoding="UTF-8"?>
<svg id="Camada_1" data-name="Camada 1" xmlns="http://www.w3.org/2000/svg" viewBox="0 0 394.43 394.43">
  <defs>
    <style>
      .cls-1 {
        stroke-width: 0px;
      }
    </style>
  </defs>
  <path class="cls-1" d="M197.73,344.23c-15.21,0-30.42,0-45.64,0-17.68,0-35.35,0-53.03,0-4.5,0-7-2.49-7-7,.01-11.17.02-22.33.11-33.5.01-1.48-.39-1.82-1.83-1.79-6.35.11-12.7.08-19.05.11-3.65.02-5.15-1.48-5.15-5.19,0-16.2.01-32.4.01-48.6,0-21.18,0-42.36,0-63.54,0-4.01,1.37-5.39,5.43-5.39,6.35,0,12.7-.01,19.05.04,1.09,0,1.5-.21,1.49-1.42-.05-22.33-.05-44.66-.06-66.99,0-17.35.04-34.7-.06-52.04-.02-3.79,2.95-7.07,7.11-7.06,35.68.13,71.37.14,107.05.15,16.2,0,32.4-.03,48.6-.09,2.05,0,3.71.65,5.14,2.09,11.47,11.51,22.96,23.01,34.44,34.5,2.09,2.09,4.17,4.19,6.31,6.22,1.85,1.76,2.72,3.77,2.71,6.4-.06,25.45-.02,50.9-.06,76.35,0,1.44.28,1.95,1.85,1.92,6.46-.1,12.92-.06,19.37-.06,3.13,0,4.74,1.59,4.74,4.76,0,24.35-.03,48.71-.04,73.06,0,12.75,0,25.5.01,38.25,0,.44.01.88,0,1.31-.16,3.99-1.32,5.15-5.3,5.15-6.24,0-12.48-.04-18.71-.08-2.07-.01-2.16.02-2.1,2.1.31,11.22.16,22.43.21,33.65.02,4.03-2.6,6.66-6.66,6.66-14.12,0-28.23-.04-42.35-.06-17.29-.02-34.58-.04-51.87-.05-1.59,0-3.17,0-4.76,0v.13ZM197.71,179.34h0c30.21.01,60.43.01,90.64,0,2.33,0,2.24.38,2.24-2.16,0-10.73,0-21.45,0-32.18,0-12.86,0-25.72.07-38.58,0-1.6-.48-2.15-2.04-1.97-1.08.12-2.19.08-3.28.07-4.81-.06-9.63.39-14.4-.6-11.11-2.31-19.36-11.72-19.94-23.06-.25-4.86-.13-9.74-.1-14.61,0-1.16-.36-1.49-1.49-1.48-3.67.04-7.33-.05-11-.05-11.38,0-22.77-.01-34.15,0-32.4.03-64.8.08-97.2.06-1.73,0-2.02.51-2.01,2.09.06,14.61.02,29.23.02,43.84,0,22.28,0,44.55-.05,66.83,0,1.34.19,1.86,1.74,1.85,30.32-.06,60.64-.04,90.96-.04ZM197.72,331.38v.03c10.51,0,21.02,0,31.53,0,19.87,0,39.73-.02,59.6,0,1.31,0,1.78-.27,1.77-1.69-.04-8.7,0-17.4.09-26.1.01-1.35-.39-1.8-1.77-1.78-5.96.07-11.93.04-17.89.05-19.81.02-39.62.05-59.43.06-21.78.02-43.56.03-65.35.03-13.19,0-26.38-.03-39.57-.1-1.37,0-1.75.37-1.73,1.74.08,7.94.07,15.87.09,23.81q0,3.95,3.99,3.95c29.55,0,59.11,0,88.66,0ZM134.94,232.85c.36.55.54.82.71,1.09,6.75,10.93,13.51,21.85,20.24,32.8.54.88,1.1,1.34,2.2,1.31,2.84-.08,5.69-.07,8.53-.01,1.02.02,1.29-.36,1.29-1.34-.03-17.4-.04-34.8-.03-52.19,0-.9-.23-1.27-1.19-1.25-2.51.04-5.03.05-7.54-.05-1.35-.06-1.79.37-1.79,1.75.05,10.11.02,20.23.02,30.34,0,1.21,0,2.43,0,3.89-.3-.33-.38-.4-.44-.49-6.99-11.42-14-22.84-20.96-34.28-.56-.92-1.18-1.23-2.25-1.19-2.46.08-4.93.11-7.38-.03-1.58-.09-1.92.5-1.91,1.96.06,6.73.02,13.46.02,20.19,0,10.45.02,20.9,0,31.35,0,.85.16,1.35,1.15,1.34,2.68-.05,5.36-.04,8.04-.04.71,0,1.12-.19,1.12-1.01.04-5.03.13-10.06.16-15.08.03-6.22,0-12.44,0-19.03ZM179.43,240.67s.03,0,.04,0c0,8.59.03,17.18-.04,25.77-.01,1.37.42,1.66,1.67,1.62,2.62-.09,5.25-.11,7.88,0,1.35.05,1.64-.43,1.63-1.69-.05-6.62.03-13.24-.03-19.86-.01-1.31.36-1.65,1.66-1.64,6.51.04,13.02-.05,19.53-.02,1.3,0,1.71-.42,1.64-1.7-.1-2.02-.12-4.05-.02-6.07.07-1.41-.48-1.7-1.79-1.69-6.51.06-13.02,0-19.53.04-1.11,0-1.52-.24-1.49-1.44.08-3.12.11-6.24-.03-9.35-.07-1.61.41-1.99,1.99-1.98,7.66.08,15.31.02,22.97.01.73,0,1.45.11,1.44-1.01-.04-2.46-.05-4.92-.02-7.38,0-.82-.36-1.02-1.1-1.02-1.64.02-3.28-.02-4.92-.02-9.96,0-19.91.01-29.87-.04-1.32,0-1.65.44-1.65,1.7.05,8.59.03,17.18.03,25.77Z"/>
  <path class="cls-1" d="M197.71,136.66c-19.7,0-39.4,0-59.1,0-.55,0-1.1-.06-1.64,0-1.26.15-1.71-.3-1.65-1.63.11-2.57.08-5.14-.02-7.71-.05-1.22.42-1.45,1.51-1.45,22.71.04,45.42.05,68.14.06,17.73.01,35.46.05,53.2,0,1.63,0,2.04.47,1.95,2.02-.14,2.34-.13,4.71,0,7.05.08,1.36-.37,1.64-1.64,1.64-17.24-.03-34.47-.02-51.71-.02-3.01,0-6.02,0-9.03,0v.04Z"/>
  <path class="cls-1" d="M197.67,162.18c-14.33,0-28.67,0-43,0-5.85,0-11.71-.01-17.56.06-1.3.02-1.84-.22-1.77-1.67.12-2.35.1-4.71-.05-7.05-.1-1.56.34-2.03,1.96-2.02,13.57.07,27.14.05,40.71.06,20.03.02,40.06.04,60.09.05,6.78,0,13.56.03,20.33-.03,1.36-.01,1.8.4,1.75,1.77-.09,2.35-.09,4.71.05,7.06.08,1.42-.27,1.85-1.78,1.84-10.89-.09-21.77-.08-32.66-.08-9.36,0-18.71,0-28.07,0,0,0,0,.01,0,.02Z"/>
  <path class="cls-1" d="M179.48,111.2c-14.11,0-28.23-.03-42.34.04-1.59,0-1.93-.48-1.86-1.93.11-2.46.08-4.92.03-7.38-.02-.99.14-1.44,1.32-1.44,11.6.06,23.19.06,34.79.06,6.07,0,12.14-.03,18.21-.03,10.89.01,21.77.05,32.66.04,1.08,0,1.27.46,1.25,1.38-.03,2.57-.07,5.15.05,7.71.06,1.31-.43,1.52-1.59,1.52-8.64-.03-17.29,0-25.93.01-5.53,0-11.05,0-16.58,0Z"/>
</svg>